<svg width="49" height="49" viewBox="0 0 49 49" fill="none" xmlns="http://www.w3.org/2000/svg">
<path d="M9.79999 16.3333C10.9468 16.3333 12.0734 16.0314 13.0666 15.458C14.0597 14.8846 14.8844 14.0598 15.4579 13.0667H39.2C40.0664 13.0667 40.8972 12.7225 41.5099 12.1099C42.1225 11.4973 42.4667 10.6664 42.4667 9.80001C42.4667 8.93364 42.1225 8.10275 41.5099 7.49013C40.8972 6.87751 40.0664 6.53335 39.2 6.53335H15.4579C14.8844 5.54023 14.0597 4.71555 13.0665 4.14219C12.0734 3.56882 10.9468 3.26697 9.79999 3.26697C8.6532 3.26697 7.52662 3.56882 6.53346 4.14219C5.54031 4.71555 4.71556 5.54023 4.14212 6.53335H9.79999V13.0667H4.14212C4.71553 14.0598 5.54025 14.8846 6.53341 15.458C7.52657 16.0314 8.65318 16.3333 9.79999 16.3333ZM7.01025 30.5564C6.70492 30.8625 6.53341 31.2772 6.53332 31.7095V44.1C6.53332 44.5332 6.7054 44.9486 7.01171 45.255C7.31802 45.5613 7.73347 45.7333 8.16665 45.7333H13.0667C13.4998 45.7333 13.9153 45.5613 14.2216 45.255C14.5279 44.9486 14.7 44.5332 14.7 44.1V42.4667H34.3V44.1C34.3 44.5332 34.4721 44.9486 34.7784 45.255C35.0847 45.5613 35.5001 45.7333 35.9333 45.7333H40.8333C41.2665 45.7333 41.6819 45.5613 41.9883 45.255C42.2946 44.9486 42.4667 44.5332 42.4667 44.1V31.7095C42.4666 31.2772 42.2951 30.8625 41.9897 30.5564L39.2 27.7667L34.7769 20.3938C34.6315 20.1512 34.4257 19.9505 34.1794 19.8114C33.9332 19.6722 33.6551 19.5994 33.3723 19.6H15.6277C15.3454 19.6 15.068 19.673 14.8224 19.8122C14.5768 19.9513 14.3714 20.1517 14.2263 20.3938L9.79999 27.7667L7.01025 30.5564ZM36.3711 29.4H12.6289L16.5489 22.8667H32.4511L36.3711 29.4ZM17.9667 35.3715V36.5867C17.9667 36.8466 17.8634 37.0959 17.6796 37.2796C17.4958 37.4634 17.2466 37.5667 16.9867 37.5667H10.78C10.5201 37.5667 10.2708 37.4634 10.087 37.2796C9.90324 37.0959 9.79999 36.8466 9.79999 36.5867V33.8623C9.80005 33.7173 9.8323 33.5741 9.89439 33.4431C9.95649 33.312 10.0469 33.1964 10.1591 33.1045C10.2713 33.0127 10.4024 32.9468 10.5431 32.9118C10.6838 32.8767 10.8306 32.8734 10.9727 32.9019L16.9181 34.0909C17.2138 34.1505 17.4798 34.3106 17.6709 34.544C17.8621 34.7774 17.9666 35.0698 17.9667 35.3715ZM39.2 34.2608V36.5867C39.2 36.8466 39.0967 37.0959 38.913 37.2796C38.7292 37.4634 38.4799 37.5667 38.22 37.5667H32.0133C31.7534 37.5667 31.5041 37.4634 31.3204 37.2796C31.1366 37.0959 31.0333 36.8466 31.0333 36.5867V35.1036C31.0334 34.8772 31.1119 34.6579 31.2554 34.4828C31.3989 34.3077 31.5986 34.1877 31.8206 34.1432L37.6353 32.9803C37.8249 32.9421 38.0206 32.9465 38.2084 32.9931C38.3961 33.0397 38.5712 33.1275 38.7209 33.25C38.8706 33.3725 38.9912 33.5267 39.0741 33.7015C39.1569 33.8764 39.1999 34.0674 39.2 34.2608Z" fill="#3E4491"/>
</svg>
