<svg width="43" height="43" viewBox="0 0 43 43" fill="none" xmlns="http://www.w3.org/2000/svg">
<g clip-path="url(#clip0_14_39)">
<path fill-rule="evenodd" clip-rule="evenodd" d="M18.705 8.4004C20.9881 9.89538 22.6543 12.1647 23.397 14.7907C24.1397 17.4166 23.9089 20.2225 22.747 22.6918C24.8215 24.2891 27.3466 25.1918 29.9636 25.2717C32.5805 25.3516 35.1561 24.6046 37.3241 23.1368C39.4921 21.6691 41.1423 19.5552 42.0401 17.0958C42.938 14.6364 43.0377 11.9566 42.3251 9.43724C41.6126 6.9179 40.1241 4.68727 38.0711 3.06242C36.0182 1.43757 33.5053 0.50119 30.8896 0.386373C28.274 0.271557 25.6887 0.984151 23.5013 2.42286C21.3138 3.86158 19.6356 5.9532 18.705 8.4004ZM30.3488 11.6745C31.4084 11.6745 32.2684 12.5345 32.2684 13.5942V19.1043C32.2684 19.6135 32.0662 20.1017 31.7062 20.4617C31.3462 20.8217 30.8579 21.024 30.3488 21.024C29.8397 21.024 29.3514 20.8217 28.9914 20.4617C28.6314 20.1017 28.4292 19.6135 28.4292 19.1043V13.5942C28.4292 12.5345 29.2892 11.6745 30.3488 11.6745ZM28.0974 6.82169C28.0974 8.26833 29.2953 8.90412 30.1399 8.99626C30.2113 9.00432 30.2831 9.00842 30.3549 9.00855C31.1934 9.00855 32.6094 8.39426 32.6094 6.82169C32.6094 5.37198 31.4115 4.73619 30.5669 4.64405C30.4955 4.63598 30.4237 4.63188 30.3519 4.63176C29.5134 4.63176 28.0974 5.24605 28.0974 6.82169ZM12.4854 25.367C13.4821 25.3872 14.4728 25.2083 15.3996 24.8408C16.3263 24.4733 17.1704 23.9246 17.8824 23.2269C18.5945 22.5291 19.1601 21.6963 19.5463 20.7772C19.9325 19.8581 20.1314 18.8712 20.1314 17.8742C20.1314 16.8773 19.9325 15.8904 19.5463 14.9713C19.1601 14.0522 18.5945 13.2194 17.8824 12.5216C17.1704 11.8238 16.3263 11.2751 15.3996 10.9077C14.4728 10.5402 13.4821 10.3613 12.4854 10.3815C10.5244 10.4212 8.65721 11.228 7.28445 12.6289C5.91168 14.0297 5.14279 15.9129 5.14279 17.8742C5.14279 19.8356 5.91168 21.7187 7.28445 23.1196C8.65721 24.5204 10.5244 25.3273 12.4854 25.367ZM8.87244e-06 40.3494C-0.00508572 37.2141 1.16962 34.1916 3.29069 31.8827C5.41175 29.5737 8.32389 28.1473 11.4484 27.8869C14.5728 27.6265 17.6809 28.5512 20.155 30.4771C22.629 32.4031 24.2878 35.1894 24.8018 38.2823H40.6412C41.2521 38.2823 41.838 38.525 42.27 38.957C42.702 39.389 42.9447 39.975 42.9447 40.5859C42.9447 41.1968 42.702 41.7828 42.27 42.2148C41.838 42.6468 41.2521 42.8895 40.6412 42.8895H2.36501C1.78181 42.8893 1.22038 42.668 0.794 42.2701C0.367615 41.8722 0.108015 41.3274 0.0675803 40.7456C0.0248239 40.6179 0.00304173 40.4841 0.0030803 40.3494H8.87244e-06Z" fill="#3E4491"/>
</g>
<defs>
<clipPath id="clip0_14_39">
<rect width="43" height="43" fill="white"/>
</clipPath>
</defs>
</svg>
