<svg width="73" height="73" viewBox="0 0 73 73" fill="none" xmlns="http://www.w3.org/2000/svg">
<path fill-rule="evenodd" clip-rule="evenodd" d="M37.9113 0.452565C37.4992 0.159143 37.0059 0.00146484 36.5 0.00146484C35.9941 0.00146484 35.5008 0.159143 35.0887 0.452565L1.022 24.7859C0.706176 25.0108 0.448654 25.3078 0.270883 25.6524C0.093112 25.9969 0.000239057 26.3789 0 26.7666L0 70.5666C0 71.212 0.256368 71.8309 0.712707 72.2873C1.16905 72.7436 1.78797 73 2.43333 73H9.73333V38.9333H34.0667V73H70.5667C71.212 73 71.831 72.7436 72.2873 72.2873C72.7436 71.8309 73 71.212 73 70.5666V26.7666C72.9998 26.3789 72.9069 25.9969 72.7291 25.6524C72.5513 25.3078 72.2938 25.0108 71.978 24.7859L68.1333 22.0362V9.7333H63.2667V18.5614L37.9113 0.452565ZM53.5333 58.4V38.9333H58.4V58.4H53.5333Z" fill="#3E4491"/>
</svg>
