<svg width="73" height="73" viewBox="0 0 73 73" fill="none" xmlns="http://www.w3.org/2000/svg">
<path d="M36.5159 0H36.2421L36.157 0.00320317H35.9623L35.871 0.00640635L35.6581 0.00960952L35.5973 0.0128129L35.3236 0.0224224H35.2566L35.0437 0.0320321L34.9525 0.0352353L34.7609 0.044845L34.6757 0.0480482L34.4019 0.0640642L34.1282 0.0832835H34.0826L34.0522 0.0864868L33.8575 0.102503L33.7662 0.108909L33.5533 0.124925L33.4925 0.131332L33.2248 0.156957L33.164 0.160161L32.9511 0.182583L32.869 0.192193L32.6713 0.211412L32.5952 0.221022L32.3276 0.253054L32.0538 0.285086L31.9839 0.294696L31.7831 0.320321L31.7588 0.326728L31.7132 0.333134H31.704L31.482 0.365166L31.4364 0.371573L31.2843 0.393995L31.1626 0.413215L31.12 0.419621L30.898 0.451653L30.825 0.467669L30.6121 0.499701L30.5513 0.512514L30.2836 0.560563L30.1771 0.579782L30.1224 0.592595L30.0159 0.611814L29.9551 0.621424L29.7422 0.663065L29.6814 0.675878L29.438 0.723927H29.4289L29.4167 0.72713L29.4015 0.730333L29.1369 0.787991L29.1156 0.794397H29.1095L29.0061 0.820023L28.8753 0.852055L28.8206 0.858462L28.5925 0.912916L28.5529 0.922526L28.2792 0.98659L28.0054 1.05065L27.975 1.06026L27.7317 1.12433L27.6982 1.13394L27.4336 1.20441L27.1538 1.28129L26.8861 1.35816L26.8557 1.36457L26.6002 1.44145H26.5911L26.3173 1.52473L26.0405 1.61122L25.8155 1.68489L25.7851 1.6945L25.7698 1.70091H25.7607L25.6756 1.73294C25.4819 1.79577 25.2892 1.86198 25.0977 1.93154L24.8543 2.01162L24.0726 2.30311L23.8445 2.3896C23.5328 2.51108 23.2235 2.63923 22.9168 2.77398C22.856 2.79641 22.7921 2.81883 22.7313 2.84766L22.2933 3.03985C21.7504 3.28298 21.2129 3.53931 20.6812 3.80862L20.4683 3.91753L20.225 4.04566C19.7079 4.31793 19.1908 4.60302 18.6859 4.90092C18.2175 5.4775 17.7613 6.06048 17.3172 6.65628L17.1347 6.91254L17.0252 7.05028L17.0404 7.04067C16.9279 7.19442 16.8214 7.35458 16.7058 7.50834C16.4716 7.83827 16.2314 8.165 16.0032 8.50133C15.8299 8.75759 15.6626 9.02026 15.4953 9.27972C15.2489 9.65769 14.9995 10.0293 14.7653 10.4169C14.601 10.6827 14.4459 10.955 14.2847 11.2177C14.0596 11.602 13.8285 11.9864 13.6156 12.3772C13.4604 12.6495 13.3114 12.9282 13.1654 13.2037C12.9525 13.6073 12.7365 14.0045 12.5267 14.4209C12.3928 14.6964 12.2529 14.9782 12.1252 15.2537C11.9305 15.6557 11.7409 16.0605 11.5564 16.4677C11.4195 16.7752 11.2887 17.086 11.1549 17.3967C10.6774 18.5147 10.2381 19.6505 9.83788 20.8017L9.6858 21.2117L9.71317 21.1733C9.32689 22.3168 8.96798 23.47 8.65469 24.6455L8.32924 24.8025C8.31402 24.8089 8.29881 24.8153 8.28362 24.8217C7.69554 25.1089 7.12649 25.4374 6.58031 25.8051C6.54473 25.8284 6.50924 25.8519 6.47386 25.8756C5.9499 26.2356 5.44898 26.6315 4.97434 27.0608C4.92848 27.101 4.88285 27.1416 4.83747 27.1825C4.37718 27.6087 3.94337 28.0655 3.5387 28.5503C3.49373 28.6033 3.44912 28.6567 3.40487 28.7104C3.00199 29.2055 2.63013 29.7277 2.29164 30.2736C2.26609 30.3162 2.24074 30.3589 2.2156 30.4017C1.87184 30.9697 1.56495 31.5615 1.29703 32.1731C1.28683 32.1987 1.27669 32.2243 1.26662 32.25C0.993834 32.8793 0.763124 33.5279 0.576171 34.1911C0.57311 34.205 0.570069 34.2189 0.567046 34.2328C0.384549 34.899 0.238552 35.5781 0.14122 36.2828C0.141209 36.2935 0.141209 36.3042 0.14122 36.3149C-0.0470735 37.7151 -0.0470735 39.1364 0.14122 40.5367C0.141209 40.5474 0.141209 40.558 0.14122 40.5687C0.238552 41.267 0.384549 41.9525 0.567046 42.6188C0.571079 42.6337 0.575135 42.6487 0.579213 42.6636C0.764751 43.3299 0.995913 43.9769 1.26662 44.6016C1.27669 44.6272 1.28683 44.6529 1.29703 44.6784C1.57078 45.2935 1.87494 45.8861 2.21864 46.453C2.24279 46.4937 2.26712 46.5343 2.29164 46.5748C2.6323 47.1257 3.00642 47.651 3.41095 48.1443C3.45218 48.1969 3.49375 48.2493 3.53566 48.3013C3.94019 48.7818 4.3721 49.2398 4.83139 49.6659C4.87978 49.7089 4.92845 49.7516 4.97738 49.794C5.44883 50.2232 5.94462 50.614 6.46777 50.9696C6.50819 50.9986 6.54874 51.0274 6.58944 51.0561C7.13085 51.418 7.69659 51.7447 8.28362 52.0298C8.29881 52.0363 8.31402 52.0427 8.32924 52.049C8.92844 52.3373 9.54589 52.5808 10.1846 52.7794C10.2019 52.7848 10.2191 52.7901 10.2363 52.7954C10.8659 52.9876 11.5138 53.1381 12.1738 53.2374C12.186 53.2396 12.1982 53.2417 12.2103 53.2438C13.537 53.4413 14.8834 53.4413 16.2101 53.2438C16.2222 53.2417 16.2344 53.2396 16.2466 53.2374C16.9096 53.1381 17.5545 52.9876 18.1841 52.7954C18.2013 52.7901 18.2185 52.7848 18.2358 52.7794C18.8685 52.5826 19.4875 52.3396 20.0881 52.0522C20.1054 52.0437 20.1226 52.0352 20.1398 52.0266C20.7238 51.7383 21.2896 51.418 21.8279 51.0561C21.8706 51.0275 21.9132 50.9986 21.9557 50.9696C22.4727 50.614 22.9746 50.22 23.4461 49.7972C23.4919 49.7548 23.5376 49.7121 23.5829 49.6691C24.0453 49.243 24.4802 48.7818 24.8878 48.2917C24.9276 48.245 24.9671 48.198 25.0064 48.1507C25.414 47.651 25.7881 47.1257 26.1318 46.5715C26.1522 46.5343 26.1725 46.4969 26.1926 46.4594C26.5414 45.8879 26.8524 45.2918 27.1234 44.6752C27.1336 44.6529 27.1437 44.6304 27.1538 44.608C27.4245 43.9769 27.6556 43.3267 27.8442 42.654C27.8463 42.6455 27.8483 42.6369 27.8503 42.6284C28.0328 41.9621 28.1788 41.2798 28.2761 40.5783C28.2762 40.557 28.2762 40.5356 28.2761 40.5143C28.4006 39.5797 28.4414 38.6348 28.3978 37.6922C28.3978 37.6901 28.3978 37.688 28.3978 37.6858C28.3978 37.5257 28.3826 37.3719 28.3674 37.215C28.3621 37.1241 28.356 37.0334 28.3491 36.9427C28.3268 36.7049 28.2984 36.4678 28.264 36.2316C28.264 36.2262 28.264 36.2209 28.264 36.2156C28.0951 35.0074 27.7846 33.826 27.3393 32.6984C27.3393 32.6974 27.3393 32.6995 27.3393 32.6984C27.2481 32.4742 27.1538 32.2468 27.0534 32.0225C27.0514 32.0193 27.0494 32.0161 27.0473 32.0129C26.9666 31.835 26.8824 31.6588 26.7949 31.4844C26.7748 31.4416 26.7545 31.3989 26.734 31.3563L26.5211 30.9623C26.4713 30.871 26.4206 30.7802 26.369 30.69L26.2565 30.4978C26.1707 30.3499 26.0825 30.2036 25.9919 30.059L25.9554 30.0077C24.8419 28.2839 23.3987 26.8241 21.7184 25.7218C21.6637 25.6866 21.612 25.6481 21.5572 25.6161C21.4605 25.5562 21.3632 25.4974 21.2652 25.4399C21.1557 25.3727 21.0462 25.3022 20.9306 25.2381C20.8861 25.2144 20.8415 25.1909 20.7968 25.1677C19.4921 24.4463 18.0881 23.9448 16.6359 23.6814C18.8012 17.3321 22.3299 11.5955 26.947 6.91895C30.0406 5.87306 33.2698 5.34029 36.5189 5.33976C53.8561 5.33976 67.9357 20.1674 67.9388 38.4258V38.4322C67.9388 45.255 65.9708 51.5974 62.6068 56.8699L62.5673 56.9275C56.2711 66.8031 44.6583 73.5618 28.9057 71.8001L28.9666 71.8513C44.783 75.4966 57.4817 70.1056 65.107 60.7682L65.0523 60.8515C65.373 60.4618 65.6854 60.0645 65.9891 59.6599C66.0438 59.5862 66.0955 59.5061 66.1533 59.4325C66.4392 59.0417 66.7191 58.6477 66.9898 58.2473L67.2939 57.7796C67.8438 56.933 68.3573 56.0608 68.833 55.1658L69.0642 54.7397C69.5904 53.7147 70.0648 52.6673 70.4907 51.5974L70.6793 51.0913C71.0383 50.1447 71.3569 49.1817 71.6343 48.2052C71.683 48.0354 71.7347 47.8689 71.7773 47.7023C71.9301 47.1438 72.0681 46.5808 72.1909 46.0142L72.2001 45.9565C72.3187 45.412 72.4191 44.8578 72.5133 44.3037L72.5894 43.7912C72.7423 42.7825 72.8519 41.7671 72.9179 40.7481C72.93 40.5559 72.9483 40.3701 72.9544 40.1811C72.9818 39.6014 73 39.0184 73 38.4354C73.003 17.2237 56.6544 0 36.5159 0ZM37.2215 10.4969C41.3672 14.895 43.7154 20.7632 44.5518 27.2466C44.8681 29.697 44.4119 32.4037 42.2098 34.0694C42.0333 35.1361 42.5595 36.2988 43.0219 37.4488C44.202 40.3957 46.0027 43.0768 47.3045 45.9117C48.4724 48.4679 45.3822 50.3578 43.1253 51.1329C42.8485 51.2294 42.5696 51.3191 42.2888 51.402C42.4348 52.6288 43.1222 53.5482 42.9428 54.6148C42.8054 55.3813 42.4021 56.0664 41.8113 56.5368C41.8113 56.5368 42.663 59.3492 40.6555 60.5728C40.1932 60.8515 39.6518 60.9059 39.5483 61.6619C39.3537 63.161 39.1408 64.6281 38.0154 65.8485C37.845 66.0311 37.6656 66.2009 37.477 66.3578C50.635 65.8709 61.7187 55.1241 62.9414 40.9563C64.2645 25.6001 53.5002 11.9992 38.9127 10.6026C38.3502 10.5477 37.7862 10.5146 37.2215 10.4969ZM31.2204 11.0415C29.114 11.4951 27.068 12.218 25.1281 13.194C26.3082 13.6233 27.3667 14.2063 28.0784 14.9046C31.3938 18.1398 33.0332 21.3206 33.9487 25.741C34.7609 29.6426 35.1502 31.5357 33.2035 32.9579C30.5726 34.8798 36.011 43.0929 37.0725 45.4696C35.6733 47.3659 33.8423 47.3243 32.875 47.8496C32.3397 48.1379 32.5618 49.2142 32.65 50.0438C32.7351 50.8575 33.4408 51.3668 33.0545 51.9978C32.7078 52.5584 31.3816 52.6 30.8128 52.9908C31.3664 53.6314 32.5922 54.2689 32.4249 55.0985C32.3032 55.7392 30.9284 55.6302 30.3992 57.0909C30.1163 57.8757 30.2623 59.3268 29.6753 60.0603C28.3126 61.758 26.8861 62.0463 24.0483 61.7164C23.1242 61.6087 22.2032 61.473 21.2865 61.3095C23.3979 62.8742 25.7174 64.1015 28.1697 64.9516C28.9301 65.2143 29.7422 65.304 30.5421 65.2143C32.0386 65.0669 33.0788 64.4903 34.0887 63.2283C34.7578 62.3954 34.5905 60.7426 34.9099 59.8521C35.5152 58.1864 37.0786 58.3209 37.2215 57.5906C37.404 56.6425 36.011 55.9153 35.3844 55.1882C36.0353 54.7462 37.5348 54.6981 37.9333 54.0575C38.3743 53.3432 37.5683 52.7634 37.4709 51.8376C37.3736 50.8959 37.1211 49.6723 37.7295 49.3391C38.8244 48.7433 40.9079 48.7882 42.5018 46.6356C41.2942 43.9321 35.1106 34.5915 38.1005 32.4069C40.3148 30.7861 39.8738 28.6367 38.9522 24.1971C37.9059 19.168 36.0414 15.5548 32.2759 11.8743C31.9508 11.561 31.5973 11.2821 31.2204 11.0415Z" fill="#3E4491"/>
</svg>
