<svg width="50" height="50" viewBox="0 0 50 50" fill="none" xmlns="http://www.w3.org/2000/svg">
<path fill-rule="evenodd" clip-rule="evenodd" d="M25 50C11.1927 50 0 38.8073 0 25C0 11.1927 11.1927 0 25 0C38.8073 0 50 11.1927 50 25C50 38.8073 38.8073 50 25 50ZM22.1042 16.4906H25.5833C28.7802 16.4906 30.3865 18.1646 30.3865 20.8146C30.3865 23.4812 28.7802 25.1719 25.5656 25.1719H22.1042V16.4906ZM26.4771 28.1542C31.0823 28.1542 34.1146 25.0396 34.1146 20.7979C34.1146 16.5406 31.149 13.3927 26.5938 13.3927H18.4427V26.2656H15.1771V28.1542H18.4417V31.3677H15.1771V33.2396H18.4417V36.851H22.1021V33.2396H28.7458V31.3677H22.1021V28.1542H26.4771Z" fill="#3E4491"/>
</svg>
