<svg width="73" height="73" viewBox="0 0 73 73" fill="none" xmlns="http://www.w3.org/2000/svg">
<path d="M30.8179 43.2346V69.8405H0C0 62.7842 3.24688 56.0169 9.02637 51.0273C14.8059 46.0377 22.6445 43.2346 30.8179 43.2346ZM30.8179 39.9089C18.0478 39.9089 7.70448 30.9793 7.70448 19.9544C7.70448 8.92961 18.0478 0 30.8179 0C43.5881 0 53.9314 8.92961 53.9314 19.9544C53.9314 30.9793 43.5881 39.9089 30.8179 39.9089ZM67.2062 63.2955L73 68.2941L67.5491 73L61.7592 67.9981C58.5284 69.6426 54.7139 70.2135 51.0305 69.6036C47.3471 68.9938 44.0479 67.2451 41.7511 64.6853C39.4543 62.1256 38.3178 58.9306 38.5545 55.6991C38.7913 52.4677 40.385 49.4217 43.037 47.1322C45.689 44.8426 49.2172 43.4667 52.9602 43.2623C56.7032 43.058 60.4041 44.0392 63.369 46.022C66.334 48.0049 68.3596 50.8532 69.066 54.0332C69.7724 57.2131 69.1111 60.5063 67.2062 63.2955ZM53.9314 63.1891C55.9748 63.1891 57.9344 62.4883 59.3793 61.2409C60.8242 59.9935 61.6359 58.3017 61.6359 56.5376C61.6359 54.7735 60.8242 53.0817 59.3793 51.8343C57.9344 50.5869 55.9748 49.8861 53.9314 49.8861C51.888 49.8861 49.9284 50.5869 48.4835 51.8343C47.0386 53.0817 46.2269 54.7735 46.2269 56.5376C46.2269 58.3017 47.0386 59.9935 48.4835 61.2409C49.9284 62.4883 51.888 63.1891 53.9314 63.1891Z" fill="#3E4491"/>
</svg>
