<svg width="60" height="60" viewBox="0 0 60 60" fill="none" xmlns="http://www.w3.org/2000/svg">
<path d="M41.39 32.2649L40.2525 33.3974C40.2525 33.3974 37.545 36.0875 30.1575 28.7424C22.77 21.3974 25.4775 18.7074 25.4775 18.7074L26.1925 17.9924C27.96 16.2374 28.1275 13.4174 26.585 11.3574L23.435 7.14995C21.525 4.59995 17.8375 4.26245 15.65 6.43745L11.725 10.3374C10.6425 11.4174 9.9175 12.8124 10.005 14.3624C10.23 18.3299 12.025 26.8624 22.035 36.8175C32.6525 47.3725 42.615 47.7924 46.6875 47.4124C47.9775 47.2924 49.0975 46.6374 50 45.7374L53.55 42.2074C55.95 39.8249 55.275 35.7374 52.205 34.07L47.43 31.4725C45.415 30.3799 42.965 30.7 41.39 32.2649Z" fill="#3E4491"/>
</svg>
