<svg width="45" height="45" viewBox="0 0 45 45" fill="none" xmlns="http://www.w3.org/2000/svg">
<path fill-rule="evenodd" clip-rule="evenodd" d="M32.56 3.70934C32.7161 3.45679 32.943 3.25653 33.212 3.13386C33.4811 3.01119 33.7802 2.97162 34.0716 3.02016L41.7521 4.31124C42.1426 4.37686 42.4913 4.59599 42.7215 4.92047C42.9517 5.24496 43.0446 5.64824 42.9799 6.04172L41.7013 13.7822C41.6525 14.0756 41.5184 14.3479 41.3161 14.5646C41.1138 14.7813 40.8522 14.9327 40.5645 14.9997C40.2767 15.0667 39.9757 15.0463 39.6995 14.941C39.4233 14.8357 39.1843 14.6503 39.0126 14.4082L36.9394 11.489L26.2626 18.3627C25.8073 18.6562 25.262 18.774 24.7273 18.6944C24.1926 18.6147 23.7045 18.343 23.3529 17.9293L17.3991 10.9171L6.26526 16.6804C5.7368 16.9542 5.12202 17.0052 4.55618 16.8224C3.99034 16.6395 3.51979 16.2377 3.24803 15.7053C2.97627 15.1729 2.92557 14.5536 3.10709 13.9835C3.28861 13.4135 3.68747 12.9395 4.21593 12.6657L16.9271 6.08385C17.3759 5.85159 17.8893 5.77872 18.3843 5.87704C18.8793 5.97535 19.3269 6.23909 19.6546 6.62557L25.4919 13.5023L34.3345 7.80831L32.6107 5.37962C32.4394 5.13744 32.3431 4.84952 32.3341 4.55224C32.325 4.25495 32.4036 3.96164 32.56 3.70934ZM13.0047 18.4861L4.33543 23.4819C3.99295 23.679 3.70818 23.9637 3.5099 24.3071C3.31162 24.6506 3.20686 25.0408 3.20621 25.4381V42.7429C3.20621 43.9888 4.20996 45 5.44672 45H13.0047V18.4861ZM16.7389 45H27.6965V24.4991L22.7704 26.979L17.8472 18.2995C17.5986 17.8581 17.209 17.5144 16.7419 17.3244L16.7389 45ZM39.8013 45H31.4307V22.6182L38.8005 18.9044C39.1421 18.7326 39.5216 18.6516 39.903 18.6691C40.2844 18.6865 40.6551 18.8019 40.9798 19.0042C41.3045 19.2065 41.5725 19.489 41.7584 19.825C41.9442 20.161 42.0418 20.5392 42.0418 20.9238V42.7429C42.0418 43.3415 41.8058 43.9156 41.3856 44.3389C40.9654 44.7622 40.3955 45 39.8013 45Z" fill="#3E4491"/>
</svg>
