<svg width="134" height="134" viewBox="0 0 134 134" fill="none" xmlns="http://www.w3.org/2000/svg">
<circle cx="67" cy="67" r="67" fill="#F7A400"/>
<g filter="url(#filter0_d_106_7)">
<path d="M83.557 56.3807C83.557 53.7292 82.6937 51.5814 80.9672 49.9375C79.2406 48.2936 76.9695 47.4716 74.1539 47.4716H61.4039V65.2898H74.1539C76.9695 65.2898 79.2406 64.4678 80.9672 62.8239C82.6937 61.1799 83.557 59.0322 83.557 56.3807ZM93 56.3807C93 61.4981 91.3199 65.6742 87.9598 68.9091C84.5996 72.1439 80.2633 73.7614 74.9508 73.7614H61.4039V78.4545H81.525C81.8969 78.4545 82.2023 78.5739 82.4414 78.8125C82.6805 79.0511 82.8 79.3561 82.8 79.7273V84.8182C82.8 85.1894 82.6805 85.4943 82.4414 85.733C82.2023 85.9716 81.8969 86.0909 81.525 86.0909H61.4039V93.7273C61.4039 94.0985 61.2777 94.4034 61.0254 94.642C60.773 94.8807 60.4742 95 60.1289 95H53.475C53.1031 95 52.7977 94.8807 52.5586 94.642C52.3195 94.4034 52.2 94.0985 52.2 93.7273V86.0909H43.275C42.9031 86.0909 42.5977 85.9716 42.3586 85.733C42.1195 85.4943 42 85.1894 42 84.8182V79.7273C42 79.3561 42.1195 79.0511 42.3586 78.8125C42.5977 78.5739 42.9031 78.4545 43.275 78.4545H52.2V73.7614H43.275C42.9031 73.7614 42.5977 73.642 42.3586 73.4034C42.1195 73.1648 42 72.8598 42 72.4886V66.5625C42 66.2178 42.1195 65.9195 42.3586 65.6676C42.5977 65.4157 42.9031 65.2898 43.275 65.2898H52.2V40.2727C52.2 39.9015 52.3195 39.5966 52.5586 39.358C52.7977 39.1193 53.1031 39 53.475 39H74.9508C80.2633 39 84.5996 40.6174 87.9598 43.8523C91.3199 47.0871 93 51.2633 93 56.3807Z" fill="white"/>
</g>
<defs>
<filter id="filter0_d_106_7" x="42" y="39" width="73.9" height="78.9" filterUnits="userSpaceOnUse" color-interpolation-filters="sRGB">
<feFlood flood-opacity="0" result="BackgroundImageFix"/>
<feColorMatrix in="SourceAlpha" type="matrix" values="0 0 0 0 0 0 0 0 0 0 0 0 0 0 0 0 0 0 127 0" result="hardAlpha"/>
<feOffset dx="13" dy="13"/>
<feGaussianBlur stdDeviation="4.95"/>
<feComposite in2="hardAlpha" operator="out"/>
<feColorMatrix type="matrix" values="0 0 0 0 0 0 0 0 0 0 0 0 0 0 0 0 0 0 0.25 0"/>
<feBlend mode="normal" in2="BackgroundImageFix" result="effect1_dropShadow_106_7"/>
<feBlend mode="normal" in="SourceGraphic" in2="effect1_dropShadow_106_7" result="shape"/>
</filter>
</defs>
</svg>
