<svg width="24" height="24" viewBox="0 0 24 24" fill="none" xmlns="http://www.w3.org/2000/svg">
<path d="M22.8032 9.22861C22.5678 11.688 21.548 17.6654 21.0303 20.4205C20.8106 21.588 20.3713 21.9771 19.9634 22.0238C19.0534 22.1017 18.363 21.4323 17.4844 20.8564C16.1037 19.9536 15.3192 19.3932 13.9856 18.5215C12.4323 17.5097 13.4365 16.9493 14.3308 16.0465C14.5661 15.813 18.5827 12.1861 18.6611 11.8593C18.672 11.8097 18.6706 11.7583 18.6569 11.7095C18.6432 11.6607 18.6177 11.6159 18.5827 11.5791C18.4885 11.5012 18.363 11.5324 18.2532 11.5479C18.112 11.5791 15.9154 13.0267 11.6322 15.8908C11.0046 16.3111 10.4397 16.529 9.93767 16.5135C9.37284 16.4979 8.30595 16.2022 7.50578 15.9375C6.51733 15.6262 5.74854 15.455 5.81129 14.9102C5.84267 14.63 6.23492 14.3498 6.97233 14.0541C11.5537 12.0772 14.5975 10.7696 16.1194 10.147C20.4811 8.34135 21.3754 8.03003 21.9716 8.03003C22.0971 8.03003 22.3952 8.06116 22.5835 8.21682C22.7404 8.34135 22.7875 8.51257 22.8032 8.6371C22.7875 8.7305 22.8189 9.01069 22.8032 9.22861Z" fill="#3E4491"/>
</svg>
