<svg width="24" height="24" viewBox="0 0 24 24" fill="none" xmlns="http://www.w3.org/2000/svg">
<path d="M22.8032 9.22858C22.5678 11.688 21.548 17.6653 21.0303 20.4205C20.8106 21.5879 20.3713 21.9771 19.9634 22.0238C19.0534 22.1016 18.363 21.4323 17.4844 20.8563C16.1037 19.9535 15.3192 19.3931 13.9856 18.5215C12.4323 17.5097 13.4365 16.9493 14.3308 16.0465C14.5661 15.813 18.5827 12.1861 18.6611 11.8592C18.672 11.8097 18.6706 11.7583 18.6569 11.7095C18.6432 11.6607 18.6177 11.6159 18.5827 11.579C18.4885 11.5012 18.363 11.5323 18.2532 11.5479C18.112 11.579 15.9154 13.0267 11.6322 15.8908C11.0046 16.3111 10.4397 16.529 9.93767 16.5134C9.37284 16.4979 8.30595 16.2021 7.50578 15.9375C6.51733 15.6262 5.74854 15.455 5.81129 14.9102C5.84267 14.63 6.23492 14.3498 6.97233 14.054C11.5537 12.0771 14.5975 10.7696 16.1194 10.147C20.4811 8.34132 21.3754 8.03 21.9716 8.03C22.0971 8.03 22.3952 8.06113 22.5835 8.21679C22.7404 8.34132 22.7875 8.51254 22.8032 8.63707C22.7875 8.73047 22.8189 9.01065 22.8032 9.22858Z" fill="white"/>
</svg>
