<svg width="73" height="73" viewBox="0 0 73 73" fill="none" xmlns="http://www.w3.org/2000/svg">
<path d="M71.449 56.4127L54.7541 39.7184C51.4607 36.4252 46.542 35.7836 42.5786 37.7367L27.3806 22.5394V13.6862L9.13162 0L0.0071284 9.12411L13.6939 27.3723H22.5475L37.7455 42.5697C35.8065 46.533 36.4338 51.4514 39.7272 54.7447L56.4221 71.4389C58.5037 73.5204 61.8683 73.5204 63.9356 71.4389L71.449 63.9258C73.5163 61.8444 73.5163 58.4798 71.449 56.4127ZM47.2977 32.0769C51.3324 32.0769 55.1248 33.6452 57.9762 36.4964L60.742 39.2622C62.9946 38.2785 65.1332 36.9099 66.9866 35.0565C72.2759 29.7674 74.0723 22.3256 72.39 15.568C72.0764 14.2849 70.4653 13.843 69.5243 14.7839L58.9171 25.3907L49.2366 23.7797L47.6256 14.0996L58.2328 3.49282C59.1738 2.5519 58.7175 0.940924 57.4201 0.613026C50.6623 -1.05498 43.2201 0.741334 37.9451 6.01621C33.8818 10.0793 31.9714 15.4397 32.0712 20.7859L43.7762 32.4904C44.931 32.2195 46.1286 32.0769 47.2977 32.0769ZM32.4846 43.7672L24.4009 35.6838L2.67319 57.4249C-0.891064 60.989 -0.891064 66.7628 2.67319 70.3269C6.23745 73.891 12.0115 73.891 15.5758 70.3269L33.1975 52.706C32.1139 49.869 31.786 46.7753 32.4846 43.7672ZM9.13162 67.2903C7.24969 67.2903 5.70994 65.7506 5.70994 63.8688C5.70994 61.9727 7.23544 60.4472 9.13162 60.4472C11.0278 60.4472 12.5533 61.9727 12.5533 63.8688C12.5533 65.7506 11.0278 67.2903 9.13162 67.2903Z" fill="#3E4491"/>
</svg>
