<svg width="24" height="24" viewBox="0 0 24 24" fill="none" xmlns="http://www.w3.org/2000/svg">
<g clip-path="url(#clip0_92_18)">
<path d="M22.1674 19.3312C22.1674 19.3312 24.4 21.5096 24.9496 22.5209C24.9654 22.5417 24.9733 22.5625 24.9785 22.5729C25.202 22.9446 25.2546 23.2331 25.1442 23.4489C24.9601 23.8077 24.329 23.9844 24.1134 24H20.1689C19.8954 24 19.3221 23.9298 18.6279 23.4567C18.0941 23.0876 17.5681 22.4819 17.0553 21.8918C16.2901 21.0131 15.6274 20.254 14.9595 20.254C14.8747 20.2539 14.7903 20.2671 14.7097 20.293C14.2048 20.4542 13.5579 21.1665 13.5579 23.0642C13.5579 23.6569 13.0845 23.9974 12.7506 23.9974H10.944C10.3287 23.9974 7.12309 23.7843 4.28305 20.8234C0.806636 17.197 -2.32267 9.92337 -2.34896 9.85578C-2.54619 9.38526 -2.13859 9.1331 -1.69418 9.1331H2.28977C2.82096 9.1331 2.99452 9.45285 3.11548 9.7362C3.25749 10.0663 3.77816 11.3791 4.6328 12.8557C6.01863 15.2629 6.86802 16.2403 7.5491 16.2403C7.67681 16.2388 7.80224 16.2067 7.91462 16.1467C8.80345 15.658 8.63778 12.5255 8.59834 11.8756C8.59834 11.7535 8.59571 10.4745 8.14077 9.86098C7.8147 9.41645 7.25984 9.24748 6.92324 9.18509C7.05948 8.99925 7.23897 8.84857 7.44654 8.74577C8.05662 8.44422 9.15583 8.40002 10.2471 8.40002H10.8546C12.0379 8.41562 12.343 8.49101 12.7716 8.59759C13.6394 8.80296 13.6578 9.35667 13.5816 11.2517C13.5579 11.7899 13.5342 12.3982 13.5342 13.1156C13.5342 13.2716 13.5263 13.438 13.5263 13.6148C13.5 14.5792 13.4685 15.6736 14.1575 16.1233C14.2473 16.179 14.3512 16.2088 14.4572 16.2091C14.6965 16.2091 15.4171 16.2091 17.3683 12.8999C17.97 11.8347 18.493 10.7279 18.9329 9.58803C18.9724 9.52044 19.0881 9.31247 19.2248 9.23189C19.3257 9.18103 19.4376 9.15516 19.5509 9.1565H24.2343C24.7445 9.1565 25.0942 9.23189 25.16 9.42685C25.2757 9.7362 25.1389 10.6798 23.001 13.542L22.0464 14.7872C20.1084 17.2983 20.1084 17.4257 22.1674 19.3312Z" fill="#3E4491"/>
</g>
<defs>
<clipPath id="clip0_92_18">
<rect width="24" height="24" fill="white"/>
</clipPath>
</defs>
</svg>
