<svg width="24" height="24" viewBox="0 0 24 24" fill="none" xmlns="http://www.w3.org/2000/svg">
<path d="M3.04736 7.00215L2.68737 7.01687C2.45432 7.03138 2.22655 7.09398 2.01779 7.20088C1.82254 7.31392 1.6443 7.45523 1.48861 7.62043C1.27262 7.82836 1.15022 8.00869 1.01883 8.1835C0.353068 9.06841 -0.005388 10.1548 6.12225e-05 11.2712C0.0036611 12.1728 0.234053 13.0506 0.594041 13.8712C1.33022 15.531 2.54157 17.2883 4.13992 18.9168C4.52511 19.3087 4.9031 19.7025 5.30988 20.0687C7.29592 21.8563 9.66259 23.1454 12.2216 23.8336L13.244 23.9936C13.577 24.012 13.91 23.9863 14.2448 23.9697C14.769 23.9421 15.2808 23.7969 15.7441 23.5447C15.9798 23.4205 16.2099 23.2855 16.4335 23.1398C16.4335 23.1398 16.5109 23.0883 16.6585 22.9742C16.9015 22.7902 17.0509 22.6596 17.2525 22.4443C17.4019 22.286 17.5315 22.1002 17.6305 21.8886C17.7709 21.5886 17.9113 21.0164 17.9689 20.5398C18.012 20.1754 17.9995 19.9767 17.9941 19.8534C17.9869 19.6565 17.8267 19.4523 17.6521 19.3658L16.6045 18.8855C16.6045 18.8855 15.0385 18.1881 14.081 17.7428C13.9808 17.6981 13.8734 17.6725 13.7642 17.6674C13.641 17.6544 13.5166 17.6686 13.3993 17.7089C13.2819 17.7492 13.1743 17.8147 13.0838 17.9011C13.0748 17.8974 12.9542 18.0023 11.6529 19.6142C11.5782 19.7168 11.4753 19.7944 11.3573 19.837C11.2394 19.8796 11.1117 19.8853 10.9905 19.8534C10.8732 19.8213 10.7583 19.7807 10.6467 19.732C10.4235 19.6363 10.3461 19.5995 10.1931 19.5332C9.16007 19.0724 8.20362 18.4497 7.35821 17.6876C7.13142 17.4852 6.92083 17.2644 6.70483 17.0509C5.99671 16.3576 5.37958 15.5734 4.8689 14.7177L4.7627 14.5429C4.68642 14.4254 4.62475 14.2987 4.57911 14.1657C4.51071 13.8952 4.6889 13.678 4.6889 13.678C4.6889 13.678 5.12629 13.1886 5.32968 12.9236C5.52767 12.666 5.69507 12.4157 5.80306 12.2372C6.01546 11.8876 6.08205 11.5288 5.97046 11.2509C5.46648 9.99232 4.94449 8.73921 4.40811 7.4953C4.30192 7.24873 3.98693 7.07208 3.70074 7.03711C3.60354 7.02607 3.50634 7.01503 3.40914 7.00767C3.16742 6.9954 2.9252 6.99785 2.68377 7.01503L3.04736 7.00215Z" fill="white"/>
</svg>
